<?xml version="1.0" encoding="UTF-8" standalone="no"?>
<!DOCTYPE svg PUBLIC "-//W3C//DTD SVG 1.1//EN" "http://www.w3.org/Graphics/SVG/1.1/DTD/svg11.dtd">
<svg width="100%" height="100%" viewBox="0 0 630 630" version="1.1" xmlns="http://www.w3.org/2000/svg" xmlns:xlink="http://www.w3.org/1999/xlink" xml:space="preserve" xmlns:serif="http://www.serif.com/" style="fill-rule:evenodd;clip-rule:evenodd;stroke-linecap:round;stroke-linejoin:round;stroke-miterlimit:1.5;">
    <g id="Artboard1" transform="matrix(1,0,0,1,-225.318,-225.318)">
        <rect x="225.318" y="225.318" width="629.364" height="629.364" style="fill:none;"/>
        <clipPath id="_clip1">
            <rect x="225.318" y="225.318" width="629.364" height="629.364"/>
        </clipPath>
        <g clip-path="url(#_clip1)">
            <g transform="matrix(1,0,0,1,-10.3356,-58.0389)">
                <g id="Layer1">
                    <path d="M865.336,423.534L865.336,773.18C865.336,850.37 802.667,913.039 725.477,913.039L375.83,913.039C298.64,913.039 235.972,850.37 235.972,773.18L235.972,423.534C235.972,346.343 298.64,283.675 375.83,283.675L725.477,283.675C802.667,283.675 865.336,346.343 865.336,423.534Z" style="fill:rgb(140,221,255);"/>
                </g>
            </g>
            <g id="Layer2" transform="matrix(1,0,0,1,0.318033,0.318033)">
                <g transform="matrix(1.11964,0,0,1.56276,-53.9256,-86.2078)">
                    <path d="M744.806,400.707C744.806,410.887 733.27,419.152 719.06,419.152L341.858,419.152C327.649,419.152 316.113,410.887 316.113,400.707C316.113,390.527 327.649,382.261 341.858,382.261L719.06,382.261C733.27,382.261 744.806,390.527 744.806,400.707Z" style="fill:white;"/>
                </g>
                <g transform="matrix(1.11964,0,0,1.56276,-53.9256,33.7922)">
                    <path d="M744.806,400.707C744.806,410.887 733.27,419.152 719.06,419.152L341.858,419.152C327.649,419.152 316.113,410.887 316.113,400.707C316.113,390.527 327.649,382.261 341.858,382.261L719.06,382.261C733.27,382.261 744.806,390.527 744.806,400.707Z" style="fill:white;"/>
                </g>
                <g transform="matrix(1.11964,0,0,1.56276,-53.9256,-206.208)">
                    <path d="M744.806,400.707C744.806,410.887 733.27,419.152 719.06,419.152L341.858,419.152C327.649,419.152 316.113,410.887 316.113,400.707C316.113,390.527 327.649,382.261 341.858,382.261L719.06,382.261C733.27,382.261 744.806,390.527 744.806,400.707Z" style="fill:white;"/>
                </g>
            </g>
            <g id="Layer3" transform="matrix(0.892686,0,0,0.892686,44.9017,58.6258)">
                <path d="M378.755,522.678L506.84,650.763L773.978,383.626" style="fill:none;stroke:rgb(140,221,255);stroke-width:121.52px;"/>
                <path d="M378.755,522.678L506.84,650.763L773.978,383.626" style="fill:none;stroke:white;stroke-width:67.39px;"/>
            </g>
        </g>
    </g>
</svg>
